<svg width="47" height="47" viewBox="0 0 47 47" fill="none" xmlns="http://www.w3.org/2000/svg">
<path d="M23.5 35.7396C22.6889 35.7396 22.0313 36.3972 22.0313 37.2083C22.0313 38.0195 22.6889 38.6771 23.5 38.6771H35.25C37.1428 38.6771 38.6771 37.1427 38.6771 35.25V11.75C38.6771 9.85728 37.1428 8.32292 35.25 8.32292H23.5C22.6889 8.32292 22.0313 8.98051 22.0313 9.79167C22.0313 10.6028 22.6889 11.2604 23.5 11.2604L35.25 11.2604C35.5204 11.2604 35.7396 11.4796 35.7396 11.75L35.7396 35.25C35.7396 35.5204 35.5204 35.7396 35.25 35.7396H23.5Z" fill="black"/>
<path fill-rule="evenodd" clip-rule="evenodd" d="M6.36462 25.684C6.36462 27.0359 7.46059 28.1319 8.81254 28.1319H17.8455C17.8583 28.2757 17.8717 28.4194 17.8857 28.5631L17.9915 29.6517C18.1529 31.3126 19.9166 32.3073 21.4214 31.5861C24.6218 30.0523 27.7133 27.7507 30.168 25.1877C31.0771 24.2385 31.0771 22.7417 30.168 21.7926L29.9737 21.5897C27.519 19.0267 24.6218 16.9279 21.4214 15.3942C19.9166 14.673 18.1529 15.6676 17.9915 17.3285L17.8857 18.4171C17.8717 18.5608 17.8583 18.7046 17.8455 18.8484L8.81254 18.8484C7.46059 18.8484 6.36462 19.9444 6.36462 21.2963V25.684ZM20.6667 26.4976C20.5835 25.7594 19.958 25.1944 19.2073 25.1944H9.30212L9.30212 21.7859H19.2073C19.983 21.7859 20.6249 21.1827 20.6732 20.4086C20.7087 19.8389 20.7541 19.2697 20.8094 18.7013L20.8401 18.3853C23.3954 19.7022 25.7211 21.4259 27.7255 23.4901C26.8886 24.352 25.9957 25.1545 25.0535 25.8928C23.739 26.9228 22.3285 27.8279 20.8401 28.5949L20.8094 28.279C20.7541 27.7105 20.7087 27.1413 20.6732 26.5717C20.6717 26.5468 20.6695 26.5221 20.6667 26.4976Z" fill="black"/>
</svg>
