<svg width="47" height="47" viewBox="0 0 47 47" fill="none" xmlns="http://www.w3.org/2000/svg">
<path fill-rule="evenodd" clip-rule="evenodd" d="M16.136 9.54867C16.0239 8.88082 15.4698 8.37612 14.7944 8.32681C14.119 8.27749 13.4975 8.69634 13.2896 9.34084L9.19682 22.0312H3.91663C3.10546 22.0312 2.44788 22.6888 2.44788 23.5C2.44788 24.3112 3.10546 24.9687 3.91663 24.9687H10.2664C10.9039 24.9687 11.4686 24.5575 11.6642 23.9508L14.2358 15.9772L17.8381 37.4513C17.9516 38.1281 18.5186 38.636 19.2038 38.6747C19.8889 38.7134 20.5095 38.2725 20.6985 37.6129L25.4564 21.0062L27.9627 29.7785C28.1242 30.3438 28.6073 30.7583 29.1906 30.8321C29.7739 30.9059 30.345 30.6247 30.6422 30.1174L33.6586 24.9687H35.9423C36.5816 27.2292 38.6599 28.8854 41.125 28.8854C44.0992 28.8854 46.5104 26.4743 46.5104 23.5C46.5104 20.5257 44.0992 18.1146 41.125 18.1146C38.6599 18.1146 36.5816 19.7708 35.9423 22.0312H32.8169C32.2955 22.0312 31.8132 22.3077 31.5496 22.7575L29.8437 25.6693L26.8705 15.2632C26.6904 14.6328 26.1144 14.1981 25.4588 14.1979C24.8033 14.1977 24.2269 14.6319 24.0463 15.2621L19.6617 30.5664L16.136 9.54867ZM38.677 23.5C38.677 22.148 39.773 21.0521 41.125 21.0521C42.4769 21.0521 43.5729 22.148 43.5729 23.5C43.5729 24.8519 42.4769 25.9479 41.125 25.9479C39.773 25.9479 38.677 24.8519 38.677 23.5Z" fill="black"/>
</svg>
