<svg width="47" height="47" viewBox="0 0 47 47" fill="none" xmlns="http://www.w3.org/2000/svg">
<path fill-rule="evenodd" clip-rule="evenodd" d="M14.1979 19.5834C14.1979 14.446 18.3626 10.2813 23.5 10.2813C28.6374 10.2813 32.8021 14.446 32.8021 19.5834C32.8021 24.7208 28.6374 28.8854 23.5 28.8854C18.3626 28.8854 14.1979 24.7208 14.1979 19.5834ZM23.5 13.2188C19.9849 13.2188 17.1354 16.0683 17.1354 19.5834C17.1354 23.0984 19.9849 25.9479 23.5 25.9479C27.0151 25.9479 29.8646 23.0984 29.8646 19.5834C29.8646 16.0683 27.0151 13.2188 23.5 13.2188Z" fill="black"/>
<path fill-rule="evenodd" clip-rule="evenodd" d="M6.90189 17.3447C7.59578 8.92658 14.6304 2.44794 23.0771 2.44794H23.923C32.3696 2.44794 39.4042 8.92658 40.0981 17.3447C40.4709 21.8668 39.074 26.357 36.2018 29.8696L26.8154 41.349C25.1019 43.4446 21.8981 43.4446 20.1846 41.349L10.7982 29.8696C7.92598 26.357 6.52914 21.8668 6.90189 17.3447ZM23.0771 5.38544C16.1592 5.38544 10.3978 10.6915 9.82946 17.586C9.51923 21.3496 10.6818 25.0867 13.0722 28.0102L22.4587 39.4895C22.9969 40.1477 24.0031 40.1477 24.5414 39.4895L33.9278 28.0102C36.3182 25.0867 37.4808 21.3496 37.1706 17.586C36.6023 10.6915 30.8408 5.38544 23.923 5.38544H23.0771Z" fill="black"/>
</svg>
